<svg width="160" height="160" viewBox="0 0 160 160" xmlns="http://www.w3.org/2000/svg">
  <!-- 白色背景 -->
  <rect width="160" height="160" fill="white"/>
  
  <!-- 二维码模拟图案 -->
  <!-- 左上角定位标记 -->
  <rect x="8" y="8" width="32" height="32" fill="black"/>
  <rect x="16" y="16" width="16" height="16" fill="white"/>
  <rect x="20" y="20" width="8" height="8" fill="black"/>
  
  <!-- 右上角定位标记 -->
  <rect x="120" y="8" width="32" height="32" fill="black"/>
  <rect x="128" y="16" width="16" height="16" fill="white"/>
  <rect x="132" y="20" width="8" height="8" fill="black"/>
  
  <!-- 左下角定位标记 -->
  <rect x="8" y="120" width="32" height="32" fill="black"/>
  <rect x="16" y="128" width="16" height="16" fill="white"/>
  <rect x="20" y="132" width="8" height="8" fill="black"/>
  
  <!-- 数据模块 -->
  <rect x="48" y="8" width="4" height="4" fill="black"/>
  <rect x="56" y="8" width="4" height="4" fill="black"/>
  <rect x="64" y="8" width="4" height="4" fill="black"/>
  <rect x="72" y="8" width="4" height="4" fill="black"/>
  <rect x="88" y="8" width="4" height="4" fill="black"/>
  <rect x="96" y="8" width="4" height="4" fill="black"/>
  <rect x="104" y="8" width="4" height="4" fill="black"/>
  <rect x="112" y="8" width="4" height="4" fill="black"/>
  
  <rect x="8" y="48" width="4" height="4" fill="black"/>
  <rect x="8" y="56" width="4" height="4" fill="black"/>
  <rect x="8" y="64" width="4" height="4" fill="black"/>
  <rect x="8" y="72" width="4" height="4" fill="black"/>
  <rect x="8" y="88" width="4" height="4" fill="black"/>
  <rect x="8" y="96" width="4" height="4" fill="black"/>
  <rect x="8" y="104" width="4" height="4" fill="black"/>
  <rect x="8" y="112" width="4" height="4" fill="black"/>
  
  <!-- 中心数据区域 -->
  <rect x="48" y="48" width="4" height="4" fill="black"/>
  <rect x="56" y="48" width="4" height="4" fill="black"/>
  <rect x="64" y="48" width="4" height="4" fill="black"/>
  <rect x="72" y="48" width="4" height="4" fill="black"/>
  <rect x="80" y="48" width="4" height="4" fill="black"/>
  <rect x="88" y="48" width="4" height="4" fill="black"/>
  <rect x="96" y="48" width="4" height="4" fill="black"/>
  <rect x="104" y="48" width="4" height="4" fill="black"/>
  
  <rect x="48" y="56" width="4" height="4" fill="black"/>
  <rect x="64" y="56" width="4" height="4" fill="black"/>
  <rect x="80" y="56" width="4" height="4" fill="black"/>
  <rect x="96" y="56" width="4" height="4" fill="black"/>
  
  <rect x="48" y="64" width="4" height="4" fill="black"/>
  <rect x="56" y="64" width="4" height="4" fill="black"/>
  <rect x="72" y="64" width="4" height="4" fill="black"/>
  <rect x="88" y="64" width="4" height="4" fill="black"/>
  <rect x="104" y="64" width="4" height="4" fill="black"/>
  
  <rect x="48" y="72" width="4" height="4" fill="black"/>
  <rect x="64" y="72" width="4" height="4" fill="black"/>
  <rect x="80" y="72" width="4" height="4" fill="black"/>
  <rect x="96" y="72" width="4" height="4" fill="black"/>
  
  <!-- 中心定位标记 -->
  <rect x="68" y="68" width="24" height="24" fill="black"/>
  <rect x="72" y="72" width="16" height="16" fill="white"/>
  <rect x="76" y="76" width="8" height="8" fill="black"/>
  
  <!-- 更多数据模块 -->
  <rect x="48" y="88" width="4" height="4" fill="black"/>
  <rect x="56" y="88" width="4" height="4" fill="black"/>
  <rect x="64" y="88" width="4" height="4" fill="black"/>
  <rect x="104" y="88" width="4" height="4" fill="black"/>
  
  <rect x="48" y="96" width="4" height="4" fill="black"/>
  <rect x="72" y="96" width="4" height="4" fill="black"/>
  <rect x="88" y="96" width="4" height="4" fill="black"/>
  <rect x="104" y="96" width="4" height="4" fill="black"/>
  
  <rect x="48" y="104" width="4" height="4" fill="black"/>
  <rect x="56" y="104" width="4" height="4" fill="black"/>
  <rect x="64" y="104" width="4" height="4" fill="black"/>
  <rect x="72" y="104" width="4" height="4" fill="black"/>
  <rect x="80" y="104" width="4" height="4" fill="black"/>
  <rect x="88" y="104" width="4" height="4" fill="black"/>
  <rect x="96" y="104" width="4" height="4" fill="black"/>
  <rect x="104" y="104" width="4" height="4" fill="black"/>
  
  <!-- 底部数据 -->
  <rect x="48" y="144" width="4" height="4" fill="black"/>
  <rect x="56" y="144" width="4" height="4" fill="black"/>
  <rect x="64" y="144" width="4" height="4" fill="black"/>
  <rect x="72" y="144" width="4" height="4" fill="black"/>
  <rect x="80" y="144" width="4" height="4" fill="black"/>
  <rect x="88" y="144" width="4" height="4" fill="black"/>
  <rect x="96" y="144" width="4" height="4" fill="black"/>
  <rect x="104" y="144" width="4" height="4" fill="black"/>
  <rect x="112" y="144" width="4" height="4" fill="black"/>
  <rect x="120" y="144" width="4" height="4" fill="black"/>
  <rect x="128" y="144" width="4" height="4" fill="black"/>
  <rect x="136" y="144" width="4" height="4" fill="black"/>
  <rect x="144" y="144" width="4" height="4" fill="black"/>
  
  <!-- 右侧数据 -->
  <rect x="144" y="48" width="4" height="4" fill="black"/>
  <rect x="144" y="56" width="4" height="4" fill="black"/>
  <rect x="144" y="64" width="4" height="4" fill="black"/>
  <rect x="144" y="72" width="4" height="4" fill="black"/>
  <rect x="144" y="80" width="4" height="4" fill="black"/>
  <rect x="144" y="88" width="4" height="4" fill="black"/>
  <rect x="144" y="96" width="4" height="4" fill="black"/>
  <rect x="144" y="104" width="4" height="4" fill="black"/>
  <rect x="144" y="112" width="4" height="4" fill="black"/>
  <rect x="144" y="120" width="4" height="4" fill="black"/>
  <rect x="144" y="128" width="4" height="4" fill="black"/>
  <rect x="144" y="136" width="4" height="4" fill="black"/>
</svg>